<svg width="177" height="27" xmlns="http://www.w3.org/2000/svg"><g fill="none" fill-rule="evenodd"><path d="M25.5 0H169a8 8 0 018 8v17.976L14.757 26c-5.017-.089-7.525-.089-7.525 0 0 .413-1.425-5.438-4.273-17.553h13.297l-6.288 12.74L25.5 0z" fill="#005CCC"/><path d="M25.628.013l.027.006c.64.109.593.687.325 1.315L14.757 26H6.152L.162 12.834l.038-.017a3.251 3.251 0 01-.192-.893L0 11.688c0-1.79 1.438-3.241 3.211-3.241 1.196 0 2.239.66 2.792 1.638l.058-.029 4.393 9.654 7.521-16.532c.821-1.656 2.166-2.664 4.033-3.026a26.188 26.188 0 013.62-.139z" fill="#3094FC"/><path d="M49.57 4.008l.07.014c.358.094.3.471.12.865l-.005.011L42.969 20H37.74l-3.646-8.113.029-.012a1.96 1.96 0 01-.115-.508L34 11.188a1.971 1.971 0 013.684-.975l.01-.004 2.66 5.92 4.562-10.155c.499-1.031 1.32-1.658 2.464-1.881a15.776 15.776 0 012.19-.085zm2.17 5.132c2.38 0 3.8 1.48 3.8 4.02v2.36h-5.18v.62c0 1.26.5 1.82 1.38 1.82.94 0 1.28-.4 1.46-1.32h2.38c-.2 2.26-1.6 3.58-3.88 3.58-2.3 0-3.7-1.52-3.7-4.08v-.835l2.665-6.047c.269-.063.555-.101.858-.114zm31.28 0c2.38 0 3.8 1.48 3.8 4.02v2.36h-5.18v.62c0 1.26.5 1.82 1.38 1.82.94 0 1.28-.4 1.46-1.32h2.38c-.2 2.26-1.6 3.58-3.88 3.58-2.3 0-3.7-1.52-3.7-4.08v-2.98c0-2.54 1.4-4.02 3.74-4.02zM95.9 5.48V20h-1.66l-.12-.98c-.52.66-1.44 1.2-2.34 1.2-2.02 0-3.38-1.6-3.38-4.14v-2.82c0-2.52 1.34-4.12 3.38-4.12.66 0 1.32.28 1.8.7V5.48h2.32zM61.86 9.16c.46 0 .84.06 1.14.2v2.28c-.38-.16-.8-.26-1.3-.26-1.22 0-1.98.78-1.98 2.32v6.28h-2.36V9.4h1.6l.22 1.26c.56-.98 1.46-1.5 2.68-1.5zm4.76.24v10.58h-2.36V9.4h2.36zm7.2-4.2v2.14h-.66c-1.02 0-1.44.48-1.44 1.66v.4h1.9v2.16h-1.9v8.42h-2.34v-8.42h-1.5V9.4h1.5V9c0-2.18 1.1-3.8 3.78-3.8h.66zm3.54 4.2v10.58H75V9.4h2.36zm14.8 2c-.88 0-1.36.58-1.36 1.86v2.82c0 1.28.5 1.9 1.36 1.9.88 0 1.42-.64 1.42-1.9v-2.82c0-1.2-.52-1.86-1.42-1.86zm-40.4-.06c-.9 0-1.4.56-1.4 1.8v.7h2.84v-.7c0-1.24-.5-1.8-1.44-1.8zm31.28 0c-.9 0-1.4.56-1.4 1.8v.7h2.84v-.7c0-1.24-.5-1.8-1.44-1.8zM65.44 5c.78 0 1.38.58 1.38 1.38 0 .74-.6 1.38-1.38 1.38-.8 0-1.36-.6-1.36-1.38 0-.8.56-1.38 1.36-1.38zm10.74 0c.78 0 1.38.58 1.38 1.38 0 .74-.6 1.38-1.38 1.38-.8 0-1.36-.6-1.36-1.38 0-.8.56-1.38 1.36-1.38z" fill="#FFF"/></g></svg>